<?xml version="1.0" standalone="no"?>
<!DOCTYPE svg PUBLIC "-//W3C//DTD SVG 20010904//EN"
 "http://www.w3.org/TR/2001/REC-SVG-20010904/DTD/svg10.dtd">
<svg version="1.0" xmlns="http://www.w3.org/2000/svg"
 width="535.000000pt" height="161.000000pt" viewBox="0 0 535.000000 161.000000"
 preserveAspectRatio="xMidYMid meet">

<g transform="translate(0.000000,161.000000) scale(0.100000,-0.100000)"
fill="#000000" stroke="none">
<path d="M1652 1587 c-51 -5 -91 -13 -90 -17 2 -6 133 -113 246 -203 9 -7 19
-4 33 9 18 17 20 28 17 97 -3 72 -6 81 -31 103 -30 26 -33 26 -175 11z"/>
<path d="M1073 1526 c-56 -6 -105 -14 -108 -17 -5 -5 211 -187 251 -211 7 -5
72 -1 146 7 73 8 139 15 147 15 7 0 -47 49 -120 109 -152 124 -130 118 -316
97z"/>
<path d="M545 1470 c-33 -4 -90 -11 -127 -15 l-67 -6 32 -28 c18 -15 78 -65
135 -110 l102 -83 133 12 c72 7 138 16 145 20 18 9 -246 220 -273 219 -11 -1
-47 -5 -80 -9z"/>
<path d="M24 1389 c-14 -16 -18 -33 -16 -80 3 -73 14 -103 45 -124 22 -14 38
-14 141 -3 64 6 116 14 116 17 -1 7 -254 211 -262 211 -3 0 -13 -9 -24 -21z"/>
<path d="M46 1079 l-27 -31 3 -500 3 -500 24 -19 c22 -18 52 -19 905 -19 l883
0 21 23 c22 23 22 24 22 523 0 436 -2 502 -16 522 -8 12 -21 22 -27 22 -7 0
-66 -54 -132 -120 l-120 -120 112 0 c104 0 113 -2 127 -22 14 -19 16 -72 16
-373 0 -192 -3 -360 -6 -371 -3 -12 -17 -27 -30 -33 -18 -8 -263 -11 -857 -11
-737 0 -835 2 -855 16 l-22 15 0 387 0 387 127 127 128 128 -127 0 -126 0 -26
-31z"/>
<path d="M500 985 l-125 -125 150 0 150 0 125 125 125 125 -150 0 -150 0 -125
-125z"/>
<path d="M1100 985 l-125 -125 150 0 150 0 125 125 125 125 -150 0 -150 0
-125 -125z"/>
<path d="M4597 1092 c-22 -24 -21 -55 1 -75 35 -32 82 -10 82 38 0 49 -52 71
-83 37z"/>
<path d="M2170 880 l0 -220 45 0 45 0 1 168 1 167 56 -167 57 -168 35 0 35 0
54 158 c30 86 58 161 63 166 4 6 8 -65 8 -157 l0 -167 45 0 45 0 0 220 0 220
-72 0 -73 0 -49 -141 c-27 -77 -52 -137 -56 -132 -5 4 -26 60 -48 123 -22 63
-43 123 -47 133 -6 14 -20 17 -76 17 l-69 0 0 -220z"/>
<path d="M3290 880 l0 -220 45 0 45 0 1 168 1 167 56 -167 57 -168 35 0 35 0
54 158 c30 86 58 161 63 166 4 6 8 -65 8 -157 l0 -167 45 0 45 0 0 220 0 220
-72 0 -73 0 -49 -141 c-27 -77 -52 -137 -56 -132 -5 4 -26 60 -48 123 -22 63
-43 123 -47 133 -6 14 -20 17 -76 17 l-69 0 0 -220z"/>
<path d="M3945 955 c-142 -52 -132 -255 15 -295 24 -6 59 -9 79 -5 89 17 131
66 131 155 0 93 -47 144 -142 155 -25 3 -60 -1 -83 -10z m115 -85 c13 -13 20
-33 20 -60 0 -48 -27 -80 -69 -80 -47 0 -76 31 -76 80 0 32 6 47 24 61 30 25
76 24 101 -1z"/>
<path d="M4837 956 c-71 -26 -97 -66 -97 -148 0 -87 43 -136 131 -153 45 -8
110 9 134 35 17 19 17 20 -6 39 -29 24 -43 26 -59 6 -25 -30 -110 -6 -110 31
0 11 20 14 105 14 l105 0 0 38 c0 107 -100 176 -203 138z m95 -73 c34 -31 23
-43 -42 -43 -64 0 -73 9 -43 42 20 22 61 23 85 1z"/>
<path d="M5150 957 c-63 -21 -86 -105 -42 -148 9 -10 43 -24 75 -33 45 -13 58
-21 55 -34 -4 -23 -64 -29 -87 -8 -16 15 -20 13 -47 -15 -33 -34 -28 -41 40
-60 92 -25 186 22 186 93 0 43 -30 72 -90 88 -58 15 -74 28 -59 46 14 17 51
18 67 2 10 -10 18 -7 38 14 31 31 26 44 -24 58 -46 12 -68 12 -112 -3z"/>
<path d="M2776 818 c35 -79 64 -152 64 -163 0 -39 -28 -65 -69 -65 -35 0 -39
-3 -45 -32 -3 -17 -3 -34 0 -37 3 -3 32 -6 65 -6 49 0 62 4 83 25 13 14 55
106 96 210 40 102 74 191 77 198 4 10 -6 12 -43 10 l-48 -3 -30 -92 c-17 -51
-33 -93 -36 -93 -3 0 -21 42 -41 93 l-36 92 -51 3 -50 3 64 -143z"/>
<path d="M4264 813 l62 -148 49 0 49 0 58 145 c32 79 58 145 58 147 0 2 -20 3
-44 3 l-44 0 -32 -92 c-18 -51 -36 -96 -39 -100 -4 -4 -23 36 -43 90 l-35 97
-51 3 -50 3 62 -148z"/>
<path d="M4590 810 l0 -150 45 0 45 0 0 150 0 150 -45 0 -45 0 0 -150z"/>
<path d="M307 623 c-4 -3 -7 -12 -7 -20 0 -11 112 -13 653 -11 572 3 652 5
652 18 0 13 -80 15 -646 18 -355 1 -649 -1 -652 -5z"/>
<path d="M303 314 c-3 -8 -1 -20 4 -25 5 -5 181 -8 444 -7 426 3 434 3 434 23
0 20 -8 20 -438 23 -391 2 -438 1 -444 -14z"/>
</g>
</svg>
