<?xml version="1.0" standalone="no"?>
<!DOCTYPE svg PUBLIC "-//W3C//DTD SVG 20010904//EN"
 "http://www.w3.org/TR/2001/REC-SVG-20010904/DTD/svg10.dtd">
<svg version="1.0" xmlns="http://www.w3.org/2000/svg"
 width="512.000000pt" height="512.000000pt" viewBox="0 0 512.000000 512.000000"
 preserveAspectRatio="xMidYMid meet">

<g transform="translate(0.000000,512.000000) scale(0.100000,-0.100000)"
fill="#000000" stroke="none">
<path d="M2055 4299 c-1039 -379 -1901 -698 -1915 -708 -39 -28 -70 -80 -70
-117 0 -18 43 -149 95 -291 61 -167 118 -346 161 -508 37 -137 73 -262 80
-277 17 -34 59 -56 119 -65 25 -3 45 -7 45 -9 0 -18 554 -2068 567 -2097 25
-57 90 -112 150 -126 50 -12 57 -11 764 179 393 105 1184 317 1759 471 575
154 1067 287 1093 295 97 32 152 107 150 209 0 46 -68 311 -281 1100 l-280
1040 28 32 c16 17 31 44 34 60 5 19 -17 116 -68 307 -41 153 -76 280 -78 281
-2 2 -772 -204 -1713 -456 -1949 -523 -1761 -473 -1755 -466 3 3 761 281 1685
617 924 337 1681 614 1683 615 5 5 -188 527 -203 551 -19 29 -75 54 -122 54
-25 -1 -691 -239 -1928 -691z m1943 588 c12 -14 175 -457 170 -461 -14 -12
-100 -37 -111 -33 -34 13 -498 360 -490 367 15 15 368 139 394 140 15 0 31 -6
37 -13z m-655 -485 c130 -96 239 -177 242 -181 5 -9 -441 -175 -453 -169 -29
12 -499 364 -494 370 16 15 448 166 458 160 6 -4 117 -85 247 -180z m-932
-334 c137 -100 249 -185 249 -189 0 -3 -103 -43 -229 -89 l-229 -82 -252 183
c-178 131 -248 186 -238 192 14 9 426 164 441 166 5 0 121 -81 258 -181z
m1969 -329 c33 -124 60 -235 60 -247 0 -12 -10 -28 -22 -36 -23 -13 -407 -120
-413 -114 -2 2 43 136 99 298 l101 294 55 17 c30 9 56 16 57 15 1 -1 30 -103
63 -227z m-2897 -14 c135 -99 247 -182 247 -185 0 -6 -428 -163 -445 -163 -12
0 -504 355 -505 364 0 7 431 168 445 166 6 -1 122 -83 258 -182z m2142 -215
c-52 -156 -100 -289 -105 -294 -9 -9 -461 -136 -468 -131 -3 3 196 587 203
593 9 9 460 128 463 122 1 -4 -40 -134 -93 -290z m-3063 -122 c137 -99 245
-184 241 -188 -7 -7 -412 -155 -441 -162 -18 -4 -174 415 -170 457 2 24 11 34
48 52 25 12 51 22 59 23 7 0 126 -82 263 -182z m2206 150 c-3 -7 -46 -137 -97
-288 -50 -151 -95 -280 -99 -286 -6 -9 -449 -134 -474 -134 -7 0 186 577 197
589 6 6 439 128 464 130 7 0 11 -5 9 -11z m1611 -220 c36 -114 551 -2059 551
-2081 0 -43 -16 -64 -62 -81 -69 -25 -3514 -946 -3540 -946 -32 0 -63 23 -76
57 -12 30 -562 2078 -562 2092 0 9 41 23 47 17 2 -2 131 -479 287 -1060 156
-581 286 -1059 288 -1062 3 -2 526 136 1164 307 637 171 1440 386 1783 478
344 92 626 172 628 177 1 5 -125 484 -281 1064 -193 719 -279 1057 -272 1062
22 15 35 8 45 -24z m-2571 -40 c-3 -7 -46 -138 -97 -290 -51 -152 -98 -281
-104 -286 -20 -15 -457 -130 -457 -119 0 7 190 576 195 584 3 4 439 122 454
122 7 1 11 -5 9 -11z m2380 -179 c-2 -7 -259 -80 -571 -164 -312 -84 -569
-154 -572 -156 -4 -5 170 -668 177 -674 2 -1 259 67 573 151 344 92 574 149
579 144 6 -6 0 -13 -15 -18 -13 -6 -357 -99 -764 -207 -407 -109 -744 -202
-749 -206 -6 -5 10 -79 37 -181 26 -95 66 -245 90 -333 29 -109 47 -161 57
-162 8 -2 355 89 770 201 654 176 797 210 768 181 -13 -14 -3204 -862 -3212
-855 -5 5 1 13 15 19 13 6 380 106 814 222 435 116 793 214 797 217 6 6 -68
307 -78 320 -1 2 -364 -94 -807 -212 -442 -119 -811 -216 -820 -216 -22 0 -22
17 1 24 9 3 363 98 787 211 424 113 784 210 801 216 l31 9 -44 162 c-24 90
-46 164 -48 166 -2 2 -365 -94 -808 -212 -442 -119 -811 -216 -820 -216 -22 0
-22 17 1 24 9 3 170 46 357 96 187 50 341 93 343 94 3 4 -174 666 -180 671 -2
3 -163 -38 -358 -91 -233 -62 -357 -91 -363 -85 -7 7 -6 12 4 16 34 13 3176
854 3192 854 10 1 17 -4 15 -10z m-3419 -350 c-55 -160 -102 -295 -104 -299
-8 -13 -102 -32 -123 -26 -11 4 -25 19 -31 34 -21 52 -122 444 -116 451 6 6
438 128 462 130 6 1 -32 -127 -88 -290z m3901 -1429 c0 -5 -12 -13 -27 -16
-16 -4 -737 -197 -1603 -430 -1383 -371 -1622 -431 -1589 -400 8 8 3165 854
3192 855 15 0 27 -3 27 -9z"/>
<path d="M2820 2723 c-91 -25 -167 -47 -169 -49 -4 -4 168 -663 176 -673 6 -8
363 93 363 103 -1 6 -40 157 -89 336 -61 229 -92 325 -102 326 -8 1 -88 -18
-179 -43z"/>
<path d="M2176 2549 c-241 -65 -440 -120 -443 -123 -5 -5 166 -657 176 -668 5
-6 875 223 885 233 4 4 -171 671 -177 675 -1 0 -199 -52 -441 -117z"/>
</g>
</svg>
